<?xml version="1.0" standalone="no"?><!DOCTYPE svg PUBLIC "-//W3C//DTD SVG 1.1//EN"
  "http://www.w3.org/Graphics/SVG/1.1/DTD/svg11.dtd">
<svg t="1647133383950" class="icon" viewBox="0 0 1024 1024" version="1.1" xmlns="http://www.w3.org/2000/svg" p-id="3711"
     width="200" height="200">
  <defs>
    <style type="text/css"></style>
  </defs>
  <path
    d="M633.639322 204.310541a20.138113 20.138113 0 0 1-20.052782-20.266109 20.095447 20.095447 0 1 1 40.105563 0c0 11.178359-8.959754 20.266109-20.052781 20.266109z m-243.79063 0a20.138113 20.138113 0 0 1-20.052781-20.266109 20.095447 20.095447 0 1 1 40.105563 0c0 11.178359-8.959754 20.266109-20.052782 20.266109z m252.110401-117.756761c79.9978 39.550912 134.140311 114.471519 134.140311 200.186495H247.900596c0-85.757642 54.185177-160.635583 134.225642-200.186495l-10.623708-16.895536-10.538377-16.639542-23.466021-37.460303A10.41038 10.41038 0 0 1 340.058062 1.734779a9.173081 9.173081 0 0 1 13.140972 2.773257l25.172641 40.105564 10.666373 16.85287 10.666373 17.108863A294.818559 294.818559 0 0 1 512 56.773265c40.105564 0 78.120518 7.807785 112.210248 21.844733l10.794369-17.108863 35.88168-56.958433a8.959754 8.959754 0 0 1 13.012976-2.773258c4.35188 2.986585 5.546514 9.215747 2.64526 13.82362l-23.508686 37.460303-10.538377 16.639543-10.538377 16.895535zM251.953818 327.699148H776.099404v433.566744c0 34.388388-26.708599 62.419617-59.731691 62.419617H673.275565c1.493292 5.20519 2.346602 10.666373 2.346602 16.426215v124.796568c0 32.639102-25.385969 59.091708-56.702441 59.091708-31.231141 0-56.531779-26.452606-56.531778-59.091708V840.111724c0-5.759842 0.767979-11.221025 2.218605-16.426215h-105.127775c1.450627 5.20519 2.303937 10.666373 2.303936 16.426215v124.796568c0 32.639102-25.385969 59.091708-56.617109 59.091708-31.273807 0-56.659775-26.452606-56.659776-59.091708V840.111724c0-5.759842 0.810644-11.221025 2.303937-16.426215h-43.092148c-33.023092 0-59.774356-28.031229-59.774356-62.419617V327.699148h4.053221z m-105.639762 0c33.663074 0 60.926325 26.281944 60.926325 58.707719v251.214425c0 32.425775-27.305916 58.707719-60.926325 58.707719-33.70574 0-60.96899-26.281944-60.96899-58.707719V386.406867c0-32.425775 27.305916-58.707719 61.011656-58.707719z m731.414553 0c33.663074 0 60.926325 26.281944 60.926325 58.707719v251.214425c0 32.425775-27.305916 58.707719-60.926325 58.707719-33.70574 0-61.011656-26.281944-61.011655-58.707719V386.406867c0-32.425775 27.305916-58.707719 61.011655-58.707719z"
    fill="#A4C639" p-id="3712"></path>
</svg>
