<?xml version="1.0" standalone="no"?><!DOCTYPE svg PUBLIC "-//W3C//DTD SVG 1.1//EN"
  "http://www.w3.org/Graphics/SVG/1.1/DTD/svg11.dtd">
<svg t="1647155168200" class="icon" viewBox="0 0 1045 1024" version="1.1" xmlns="http://www.w3.org/2000/svg" p-id="2989"
     width="204.1015625" height="200">
  <defs>
    <style type="text/css"></style>
  </defs>
  <path
    d="M530.830706 0h4.466383l-14.118127 1.372596c87.889702 0.479319 175.88834 21.765447 252.971574 64.098042 99.981617 54.250213 181.291574 141.878468 227.306213 245.60749 30.066383 67.671149 45.927489 141.791319 44.337021 215.889702 0.413957 120.221957-44.903489 239.419915-122.858213 331.013447-112.574638 14.183489-229.158128 22.811234-340.076936-6.536171-65.797447-16.296851-124.29617-58.520511-161.770212-114.600851-38.040511-66.995745-25.011745-159.722213 32.659063-211.793702 40.153872-36.253957 98.107915-51.788255 151.094468-40.001362 46.907915 9.542809 88.586894 39.957787 112.64 81.048511 23.508426-12.288 46.842553-24.902809 70.372766-37.125447-16.580085-27.756936-37.038298-53.574809-62.61651-73.640851-43.029787-33.900936-97.585021-52.289362-152.270979-53.814468-51.897191-0.610043-103.925106 14.815319-146.606298 44.293447-86.691404 58.629447-129.568681 174.951489-99.589447 275.150979 19.129191 67.997957 69.326979 123.860426 127.912851 161.748425 46.581106 29.804936 100.548085 45.949277 154.667575 55.709958 74.35983 13.07234 150.266553 8.257362 225.04034 1.917276-7.516596 7.690894-18.802383 7.233362-28.672 8.998128-79.784851 11.765106-162.075234 12.157277-240.923234-6.274723-75.645277-17.429787-147.673872-54.555234-201.401191-110.940596-78.956936-84.839489-97.454298-222.730894-35.426043-322.037107 32.419404-52.85583 79.937362-98.325787 139.024341-119.916936 64.533787-23.94417 138.022128-23.704511 202.207319 1.26366 10.545021-24.358128 22.048681-48.280511 32.397617-72.704-105.86417-43.073362-232.317277-31.896511-328.442553 29.957447-52.61617 33.857362-95.929191 81.222809-127.433532 134.993702-35.099234 61.83217-46.450383 135.603745-35.709277 205.497191 14.139915 94.229787 65.906383 182.446298 141.791319 240.661787 36.885787 28.998809 80.50383 48.541957 125.407319 61.723235 58.019404 17.146553 118.566128 24.619574 178.960341 26.013957 8.562383 0.130723 17.146553 0.479319 25.665362 1.546894-12.157277 6.274723-26.253617 4.379234-39.434894 4.749617-71.767149 1.481532-144.078979-9.60817-211.379745-34.619915-51.2-19.172766-99.524085-47.801191-137.499234-87.345022-39.827064-39.369532-73.33583-85.972426-92.770042-138.675744-22.811234-62.376851-29.93566-130.963064-17.713022-196.368341 14.815319-77.824 59.457362-147.761021 117.934298-200.616851 70.133106-63.749447 165.081872-99.95983 260.139575-98.391149 0.043574-26.732936-0.021787-53.509447 0.087149-80.242383-82.050723 0.043574-164.123234 21.373277-235.062468 62.572937-93.728681 54.250213-167.413106 141.420936-206.477617 241.925446-28.715574 75.296681-39.434894 159.199319-19.957107 238.112681 22.310128 96.386723 83.815489 182.141277 166.214809 236.979745 12.832681 9.368511 27.517277 15.882894 40.110298 25.643574-5.817191-0.39217-11.743319-1.067574-16.950469-3.834553-26.558638-12.636596-51.374298-28.584851-74.948085-46.08-42.441532-31.940085-82.464681-68.063319-112.814298-111.855659-37.975149-52.441872-67.932596-111.180255-84.469106-173.905703-15.730383-57.997617-19.281702-118.696851-15.142128-178.459234 10.022128-128.130723 70.656-251.315745 165.691915-338.268595C244.698962 68.913021 344.114111 21.504 448.714621 6.993702 475.905089 2.658043 503.509515 3.072 530.830706 0z"
    fill="#673398" p-id="2990"></path>
</svg>
