<?xml version="1.0" standalone="no"?><!DOCTYPE svg PUBLIC "-//W3C//DTD SVG 1.1//EN"
  "http://www.w3.org/Graphics/SVG/1.1/DTD/svg11.dtd">
<svg t="1647155259783" class="icon" viewBox="0 0 1024 1024" version="1.1" xmlns="http://www.w3.org/2000/svg" p-id="3454"
     width="200" height="200">
  <defs>
    <style type="text/css"></style>
  </defs>
  <path
    d="M512.768 510.058667m-426.666667 0a426.666667 426.666667 0 1 0 853.333334 0 426.666667 426.666667 0 1 0-853.333334 0Z"
    fill="#B5CFEC" p-id="3455"></path>
  <path
    d="M512.768 469.418667m-364.821333 0a364.821333 364.821333 0 1 0 729.642666 0 364.821333 364.821333 0 1 0-729.642666 0Z"
    fill="#6E9ED9" p-id="3456"></path>
  <path
    d="M476.352 376.533333v373.76h-45.056v-134.144c-7.168 10.581333-16.725333 19.2-28.672 25.856-11.968 6.656-26.453333 9.984-43.52 9.984-41.322667 0-72.384-16.896-93.184-50.688-16.405333-26.624-24.576-59.562667-24.576-98.816 0-38.912 9.898667-70.912 29.717333-96 19.797333-25.088 47.104-37.632 81.92-37.632 21.141333 0 39.253333 5.632 54.272 16.896 7.829333 5.802667 16.384 15.36 25.6 28.672l1.024-37.888h42.474667z m-42.496 146.432c0-40.277333-6.848-69.802667-20.565333-88.576-12.330667-16.725333-29.632-25.088-51.904-25.088-30.144 0-51.050667 12.458667-62.677334 37.376-7.210667 15.36-10.794667 36.352-10.794666 62.976 0 31.061333 6.058667 56.064 18.218666 75.008 12.16 18.944 30.229333 28.416 54.208 28.416 18.496 0 34.24-5.973333 47.274667-17.92 17.493333-16.042667 26.24-40.106667 26.24-72.192zM580.266667 644.309333h-42.496V276.693333h45.056v133.632c20.138667-27.648 46.250667-41.472 78.336-41.472 34.474667 0 61.952 12.8 82.432 38.4 19.456 24.576 29.184 56.32 29.184 95.232 0 39.253333-8.192 72.192-24.576 98.816-20.821333 33.792-51.882667 50.688-93.184 50.688-19.797333 0-36.522667-4.949333-50.176-14.848-8.874667-6.485333-16.725333-15.189333-23.552-26.112l-1.024 33.28z m145.92-134.656c0-26.965333-3.413333-47.957333-10.261334-62.976-11.648-24.896-32.704-37.376-63.189333-37.376-28.8 0-49.002667 13.482667-60.650667 40.448-7.872 18.090667-11.818667 42.496-11.818666 73.216 0 31.744 8.554667 55.637333 25.685333 71.68a68.202667 68.202667 0 0 0 47.786667 18.432c23.616 0 41.6-9.557333 53.952-28.672 12.330667-19.114667 18.496-44.032 18.496-74.752z"
    fill="#FFFFFF" p-id="3457"></path>
</svg>
