<?xml version="1.0" standalone="no"?><!DOCTYPE svg PUBLIC "-//W3C//DTD SVG 1.1//EN"
  "http://www.w3.org/Graphics/SVG/1.1/DTD/svg11.dtd">
<svg t="1647351112543" class="icon" viewBox="0 0 1024 1024" version="1.1" xmlns="http://www.w3.org/2000/svg" p-id="3014"
     width="200" height="200">
  <defs>
    <style type="text/css"></style>
  </defs>
  <path d="M960 512c0 247.296-200.48 448-448 448S64 759.296 64 512C64 264.48 264.48 64 512 64s448 200.48 448 448z"
        fill="#E95420" p-id="3015"></path>
  <path
    d="M218.304 452.992c-32.32 0-58.304 26.56-58.304 59.104s26.208 59.136 58.304 59.136c32.064 0 58.272-26.56 58.272-59.136a58.688 58.688 0 0 0-58.272-59.104z m416.32 268.544a59.744 59.744 0 0 0-21.408 80.8 57.824 57.824 0 0 0 79.68 21.696 59.744 59.744 0 0 0 21.408-80.8c-16.384-28.096-51.968-37.856-79.68-21.696z m-289.728-209.408a172.8 172.8 0 0 1 72.48-141.248l-42.56-72.416a257.824 257.824 0 0 0-104.8 149.216c18.336 15.296 30.144 38.528 30.144 64.416 0 25.92-11.808 49.152-30.144 64.448a256.864 256.864 0 0 0 104.8 149.216l42.56-72.416a172.8 172.8 0 0 1-72.448-141.248z m170.304-172.704c89.056 0 161.984 69.088 169.6 157.44l83.2-1.344a257.152 257.152 0 0 0-75.328-166.496 81.216 81.216 0 0 1-69.856-5.76 82.944 82.944 0 0 1-39.936-58.656 253.664 253.664 0 0 0-67.68-9.28c-40.384 0-78.4 9.504-112.224 26.56l40.64 73.472a168.128 168.128 0 0 1 71.584-15.936z m0 345.376a169.92 169.92 0 0 1-71.84-15.936l-40.608 73.472a248.896 248.896 0 0 0 112.224 26.56c23.36 0 46.08-3.296 67.68-9.28a82.752 82.752 0 0 1 39.936-58.656 80.512 80.512 0 0 1 69.888-5.76 258.24 258.24 0 0 0 75.296-166.496l-83.2-1.312c-7.392 88.096-80.32 157.408-169.376 157.408z m119.2-382.336a57.824 57.824 0 0 0 79.68-21.696 59.52 59.52 0 0 0-21.408-80.8 57.824 57.824 0 0 0-79.68 21.696 59.936 59.936 0 0 0 21.408 80.8z"
    fill="#FFFFFF" p-id="3016"></path>
</svg>
